HIERARCHY
ROOT Hips
{
	OFFSET 0.00000 0.00000 0.00000
	CHANNELS 6 Xposition Yposition Zposition Zrotation Yrotation Xrotation 
	JOINT LHipJoint
	{
		OFFSET 0 0 0
		CHANNELS 3 Zrotation Yrotation Xrotation
		JOINT LeftHip
		{
			OFFSET 1.58895 -1.83665 0.71753
			CHANNELS 3 Zrotation Yrotation Xrotation
			JOINT LeftKnee
			{
				OFFSET 2.50528 -6.88321 0.00000
				CHANNELS 3 Zrotation Yrotation Xrotation
				JOINT LeftAnkle
				{
					OFFSET 2.63244 -7.23257 0.00000
					CHANNELS 3 Zrotation Yrotation Xrotation
					JOINT LeftToe
					{
						OFFSET 0.23691 -0.65090 1.72750
						CHANNELS 3 Zrotation Yrotation Xrotation
						End Site
						{
							OFFSET 0.00000 -0.00000 0.92561
						}
					}
				}
			}
		}
	}
	JOINT RHipJoint
	{
		OFFSET 0 0 0
		CHANNELS 3 Zrotation Yrotation Xrotation
		JOINT RightHip
		{
			OFFSET -1.51435 -1.83665 0.71753
			CHANNELS 3 Zrotation Yrotation Xrotation
			JOINT RightKnee
			{
				OFFSET -2.54551 -6.99375 0.00000
				CHANNELS 3 Zrotation Yrotation Xrotation
				JOINT RightAnkle
				{
					OFFSET -2.66027 -7.30903 0.00000
					CHANNELS 3 Zrotation Yrotation Xrotation
					JOINT RightToe
					{
						OFFSET -0.22981 -0.63138 2.03959
						CHANNELS 3 Zrotation Yrotation Xrotation
						End Site
						{
							OFFSET -0.00000 -0.00000 1.07060
						}
					}
				}
			}
		}
	}
	JOINT lowerback
	{
		OFFSET 0 0 0
		CHANNELS 3 Zrotation Yrotation Xrotation
		JOINT Chest
		{
			OFFSET -0.02651 1.86275 -0.11152
			CHANNELS 3 Zrotation Yrotation Xrotation
			JOINT Chest2
			{
				OFFSET 0.01019 1.86224 0.04087
				CHANNELS 3 Zrotation Yrotation Xrotation
				JOINT lowerneck
				{
					OFFSET 0 0 0
					CHANNELS 3 Zrotation Yrotation Xrotation
					JOINT Neck
					{
						OFFSET -0.01926 1.80512 0.08867
						CHANNELS 3 Zrotation Yrotation Xrotation
						JOINT Head
						{
							OFFSET 0.05516 1.76451 -0.38475
							CHANNELS 3 Zrotation Yrotation Xrotation
							End Site
							{
								OFFSET 0.01592 1.82587 -0.14001
							}
						}
					}
				}
				JOINT LeftCollar
				{
					OFFSET 0 0 0
					CHANNELS 3 Zrotation Yrotation Xrotation
					JOINT LeftShoulder
					{
						OFFSET 3.47116 1.51376 0.14491
CHANNELS 3 Zrotation Xrotation Yrotation
						JOINT LeftElbow
						{
OFFSET 0 -4.780950 0.000000
CHANNELS 3 Zrotation Xrotation Yrotation
							JOINT LeftWrist
							{
OFFSET 0 -3.586150 -0.000000
CHANNELS 3 Zrotation Xrotation Yrotation
								JOINT lhand
								{
									OFFSET 0 0 0
CHANNELS 3 Zrotation Xrotation Yrotation
									JOINT LFingers
									{
OFFSET 0 -0.659810 0.000000
CHANNELS 3 Zrotation Xrotation Yrotation
										End Site
										{
OFFSET 0 -0.531960 0.000000
										}
									}
								}
								JOINT LThumb
								{
OFFSET 0 0.000000 0.000000
CHANNELS 3 Zrotation Xrotation Yrotation
									End Site
									{
OFFSET 0 -0.540080 0.540080
									}
								}
							}
						}
					}
				}
				JOINT RightCollar
				{
					OFFSET 0 0 0
					CHANNELS 3 Zrotation Yrotation Xrotation
					JOINT RightShoulder
					{
						OFFSET -3.31725 1.61216 0.35156
CHANNELS 3 Zrotation Xrotation Yrotation
						JOINT RightElbow
						{
OFFSET 0 -4.489130 0.000000
CHANNELS 3 Zrotation Xrotation Yrotation
							JOINT RightWrist
							{
OFFSET 0 -3.705100 0.000000
CHANNELS 3 Zrotation Xrotation Yrotation
								JOINT rhand
								{
									OFFSET 0 0 0
CHANNELS 3 Zrotation Xrotation Yrotation
									JOINT RFingers
									{
OFFSET 0 -0.449140 0.000000
CHANNELS 3 Zrotation Xrotation Yrotation
										End Site
										{
OFFSET 0 -0.362110 0.000000
										}
									}
								}
								JOINT RThumb
								{
OFFSET 0 0.000000 0.000000
CHANNELS 3 Zrotation Xrotation Yrotation
									End Site
									{
OFFSET 0 -0.367630 0.367630
									}
								}
							}
						}
					}
				}
			}
		}
	}
}
MOTION
Frames: 15
Frame Time: .0083333
-0.7063 18.7215 5.7105 -1.3681 -0.7054 1.5028 0.0000 0.0000 0.0000 -12.2198 -3.9454 -3.9661 1.2485 7.0844 19.9655 1.2272 2.6001 -22.0097 8.5926 -16.5383 -54.6703 0.0000 0.0000 0.0000 0.0000 0.0000 0.0000 0.0000 0.0000 0.0000 -0.0000 -0.0000 0.0000 -0.0000 -0.0000 0.0000 8.8886 1.3480 8.0625 1.6205 2.8904 -2.7418 -3.6698 1.0527 -7.1086 -6.8548 -9.8844 -8.9323 4.7791 -12.7102 3.5709 1.9576 -6.2365 3.5873 -0.0000 0.0000 0.0000 6.8803 27.5302 -42.9701 60.2375 -56.3729 34.5388 7.8122 -1.8732 22.2284 0.0 0.0 0.0 -7.1250 0.0 0.0 -13.2017 8.0391 -11.5447 -0.0000 0.0000 0.0000 -64.8398 -30.7479 -2.6264 -107.7693 -58.7727 -75.3252 -30.9081 23.6933 32.0031 0.0 0.0 0.0 7.1250 0.0 -0.0 1.2479 66.0446 -0.6338
-0.7099 18.7215 5.7114 -1.3480 -0.6742 1.5046 0.0000 0.0000 0.0000 -12.2224 -3.9075 -3.9854 1.2474 7.0814 19.9568 1.2204 2.5774 -21.9408 8.5953 -16.5401 -54.6797 0.0000 0.0000 0.0000 0.0000 0.0000 0.0000 0.0000 0.0000 0.0000 -0.0000 -0.0000 0.0000 -0.0000 -0.0000 0.0000 8.7809 1.3598 8.0447 1.6286 2.8877 -2.6676 -3.5992 1.0625 -7.0228 -6.8062 -9.9089 -9.1377 4.7483 -12.7311 3.5389 1.9282 -6.2438 3.6097 -0.0000 0.0000 0.0000 6.9638 27.362 -43.1106 60.3016 -56.3898 34.5922 7.8025 -1.913 22.2168 0.0 0.0 0.0 -7.1250 0.0 0.0 -13.2078 8.0513 -11.547 -0.0000 0.0000 0.0000 -64.1 -30.3039 -1.912 -108.4928 -58.6675 -75.9436 -30.6015 23.537 32.0837 0.0 0.0 0.0 7.1250 0.0 -0.0 1.7053 66.0396 -0.8659
-0.7112 18.7217 5.7116 -1.3325 -0.6635 1.5211 0.0000 0.0000 0.0000 -12.2365 -3.9423 -3.9830 1.2470 7.0803 19.9535 1.2241 2.5739 -21.9711 8.5632 -16.5182 -54.5668 0.0000 0.0000 0.0000 0.0000 0.0000 0.0000 0.0000 0.0000 0.0000 -0.0000 -0.0000 0.0000 -0.0000 -0.0000 0.0000 8.6896 1.3550 8.0145 1.6507 2.8648 -2.6008 -3.5198 1.0614 -6.9406 -6.7772 -9.9387 -9.4277 4.6576 -12.7521 3.6583 1.8750 -6.2524 3.6983 0.0000 0.0000 0.0000 6.9188 27.1081 -43.1498 60.2280 -56.3704 34.5309 7.731 -1.8815 22.2005 0.0 0.0 0.0 -7.1250 0.0 0.0 -13.2522 8.0737 -11.5821 0.0000 0.0000 0.0000 -63.5899 -29.9656 -1.3147 -109.1432 -58.569 -76.4988 -30.4911 23.491 32.175 0.0 0.0 0.0 7.1250 0.0 -0.0 1.9061 66.1033 -0.9707
-0.7126 18.7209 5.7123 -1.3885 -0.6997 1.5170 0.0000 0.0000 0.0000 -12.1757 -3.9157 -3.9743 1.2468 7.0796 19.9515 1.2250 2.6116 -21.9962 8.5756 -16.5267 -54.6104 0.0000 0.0000 0.0000 0.0000 0.0000 0.0000 0.0000 0.0000 0.0000 -0.0000 -0.0000 0.0000 -0.0000 -0.0000 0.0000 8.6705 1.3559 8.0387 1.6971 2.8684 -2.5822 -3.4611 1.0657 -6.9371 -6.7286 -9.9741 -9.6100 4.4858 -12.7861 3.8296 1.7945 -6.2722 3.7768 0.0000 -0.0000 0.0000 6.7973 26.8759 -43.1459 60.0099 -56.3126 34.3494 7.7033 -1.8398 22.2643 0.0 0.0 0.0 -7.1250 0.0 0.0 -13.2694 8.0138 -11.6141 0.0000 -0.0000 0.0000 -63.2815 -29.6453 -0.8513 -109.6910 -58.483 -76.9661 -30.6375 23.4577 31.9489 0.0 0.0 0.0 7.1250 0.0 -0.0 1.5803 65.9081 -0.7977
-0.7149 18.7188 5.7145 -1.4578 -0.7310 1.4702 0.0000 0.0000 0.0000 -12.0984 -3.8724 -3.9198 1.2463 7.0783 19.9476 1.2261 2.6023 -22.0011 8.5881 -16.5353 -54.6546 0.0000 0.0000 0.0000 0.0000 0.0000 0.0000 0.0000 0.0000 0.0000 -0.0000 -0.0000 0.0000 -0.0000 -0.0000 0.0000 8.6490 1.3551 8.1187 1.7430 2.8770 -2.5819 -3.4049 1.0697 -6.9852 -6.6800 -10.0123 -9.7332 4.3698 -12.8310 3.9704 1.7349 -6.2962 3.8389 -0.0000 0.0000 0.0000 6.7972 26.8393 -43.1957 60.0275 -56.3173 34.364 7.7192 -1.8712 22.3445 0.0 0.0 0.0 -7.1250 0.0 0.0 -13.2598 7.934 -11.6266 -0.0000 0.0000 0.0000 -63.1656 -29.4227 -0.69 -110.1074 -58.4158 -77.3209 -30.7983 23.4648 31.632 0.0 0.0 0.0 7.1250 0.0 -0.0 1.1903 65.6205 -0.5929
-0.7160 18.7178 5.7171 -1.4644 -0.7185 1.4350 0.0000 0.0000 0.0000 -12.0923 -3.8916 -3.8531 1.2454 7.0760 19.9406 1.2368 2.5280 -22.0568 8.5419 -16.5037 -54.4920 0.0000 0.0000 0.0000 0.0000 0.0000 0.0000 0.0000 0.0000 0.0000 -0.0000 -0.0000 0.0000 -0.0000 -0.0000 0.0000 8.5800 1.3443 8.1591 1.7536 2.8602 -2.5788 -3.3547 1.0638 -7.0103 -6.6083 -10.0104 -9.7526 4.3510 -12.8357 3.9945 1.7149 -6.2978 3.8437 0.0000 -0.0000 0.0000 6.9241 26.878 -43.3052 60.1785 -56.3573 34.4897 7.6942 -1.9162 22.4112 0.0 0.0 0.0 -7.1250 0.0 0.0 -13.2754 7.8711 -11.658 0.0000 -0.0000 0.0000 -63.2701 -29.37 -0.956 -110.4150 -58.3651 -77.5829 -31.1664 23.5715 31.5111 0.0 0.0 0.0 7.1250 0.0 -0.0 0.6347 65.5995 -0.3158
-0.7151 18.7180 5.7187 -1.4710 -0.6982 1.4193 0.0000 0.0000 0.0000 -12.0914 -3.9280 -3.8043 1.2433 7.0700 19.9229 1.2389 2.5180 -22.0696 8.5292 -16.4950 -54.4471 0.0000 0.0000 0.0000 0.0000 0.0000 0.0000 0.0000 0.0000 0.0000 -0.0000 -0.0000 0.0000 -0.0000 -0.0000 0.0000 8.5599 1.3510 8.1820 1.7354 2.8691 -2.5927 -3.3651 1.0671 -7.0372 -6.5729 -9.9900 -9.5335 4.4321 -12.8294 3.8708 1.7499 -6.2944 3.7613 -0.0000 -0.0000 0.0000 7.078 26.8709 -43.4651 60.2158 -56.3672 34.5207 7.7055 -1.9257 22.4459 0.0 0.0 0.0 -7.1250 0.0 0.0 -13.2685 7.8362 -11.661 -0.0000 -0.0000 0.0000 -63.5398 -29.3418 -1.6469 -110.6147 -58.3317 -77.7529 -32.2176 24.0348 31.1652 0.0 0.0 0.0 7.1250 0.0 -0.0 -0.9511 65.5368 0.4719
-0.7131 18.7181 5.7199 -1.4920 -0.6870 1.3815 0.0000 0.0000 0.0000 -12.0790 -3.9669 -3.7241 1.2392 7.0589 19.8900 1.2296 2.5735 -22.0170 8.5531 -16.5114 -54.5315 0.0000 0.0000 0.0000 0.0000 0.0000 0.0000 0.0000 0.0000 0.0000 -0.0000 -0.0000 0.0000 -0.0000 -0.0000 0.0000 8.5582 1.3497 8.2537 1.7522 2.8773 -2.6061 -3.3504 1.0687 -7.0932 -6.6572 -10.0118 -9.4061 4.4833 -12.8609 3.8715 1.7843 -6.3114 3.7506 -0.0000 -0.0000 0.0000 7.115 26.8866 -43.5373 60.2708 -56.3817 34.5665 7.7137 -1.9252 22.3812 0.0 0.0 0.0 -7.1250 0.0 0.0 -13.2632 7.8986 -11.6394 -0.0000 -0.0000 0.0000 -64.0601 -29.4483 -2.7334 -110.5040 -58.3503 -77.6586 -33.4827 24.6106 30.1503 0.0 0.0 0.0 7.1250 0.0 -0.0 -3.0940 64.8088 1.4835
-0.7110 18.7172 5.7215 -1.4920 -0.6906 1.3413 0.0000 0.0000 0.0000 -12.0929 -4.0253 -3.6188 1.2340 7.0447 19.8478 1.2283 2.5913 -22.0149 8.5436 -16.5049 -54.4979 0.0000 0.0000 0.0000 0.0000 0.0000 0.0000 0.0000 0.0000 0.0000 -0.0000 -0.0000 0.0000 -0.0000 -0.0000 0.0000 8.5228 1.3352 8.3736 1.7910 2.8705 -2.6113 -3.2935 1.0641 -7.1722 -6.7708 -10.0543 -9.4300 4.4822 -12.9053 3.9591 1.7959 -6.3348 3.7986 0.0000 -0.0000 0.0000 7.049 26.8942 -43.5067 60.3416 -56.4003 34.6255 7.6113 -1.923 22.2517 0.0 0.0 0.0 -7.1250 0.0 0.0 -13.3265 8.0343 -11.6615 0.0000 -0.0000 0.0000 -64.8043 -29.8185 -4.183 -109.9724 -58.4378 -77.2059 -35.2822 26.6579 30.2483 0.0 0.0 0.0 7.1250 0.0 -0.0 -5.5370 65.4404 2.7385
-0.7096 18.7165 5.7229 -1.4972 -0.7038 1.3458 0.0000 0.0000 0.0000 -12.0911 -4.0190 -3.5844 1.2285 7.0296 19.8029 1.2279 2.5757 -22.0038 8.5418 -16.5036 -54.4914 0.0000 0.0000 0.0000 0.0000 0.0000 0.0000 0.0000 0.0000 0.0000 -0.0000 -0.0000 0.0000 -0.0000 -0.0000 0.0000 8.5199 1.3385 8.5589 1.7958 2.9017 -2.6984 -3.2996 1.0684 -7.3704 -6.8621 -10.0802 -9.2618 4.5719 -12.9464 3.9290 1.8462 -6.3558 3.7739 0.0000 0.0000 0.0000 7.0762 26.9973 -43.5525 60.3983 -56.4151 34.6727 7.5349 -1.9269 22.2206 0.0 0.0 0.0 -7.1250 0.0 0.0 -13.3739 8.0715 -11.6953 0.0000 0.0000 0.0000 -65.5468 -30.243 -5.7668 -109.0885 -58.5774 -76.4522 -36.9325 29.157 30.3031 0.0 0.0 0.0 7.1250 0.0 -0.0 -7.8799 65.9913 4.003
-0.7090 18.7169 5.7248 -1.5245 -0.7394 1.3657 0.0000 0.0000 0.0000 -12.0641 -3.9969 -3.5667 1.2232 7.0149 19.7595 1.2271 2.6146 -22.0150 8.5494 -16.5089 -54.5184 0.0000 0.0000 0.0000 0.0000 0.0000 0.0000 0.0000 0.0000 0.0000 -0.0000 -0.0000 0.0000 -0.0000 -0.0000 0.0000 8.5465 1.3513 8.7835 1.8020 2.9583 -2.8523 -3.3267 1.0779 -7.6604 -6.9261 -10.0890 -8.9995 4.6256 -12.9727 3.9155 1.8857 -6.3721 3.7306 0.0000 0.0000 0.0000 7.1628 27.1973 -43.654 60.4465 -56.4277 34.7129 7.4885 -1.8961 22.2547 0.0 0.0 0.0 -7.1250 0.0 0.0 -13.4027 8.0423 -11.7299 0.0000 0.0000 0.0000 -66.3448 -30.612 -7.2738 -107.7855 -58.7704 -75.3391 -38.6128 31.8844 30.0876 0.0 0.0 0.0 7.1250 0.0 -0.0 -10.4128 66.2583 5.3644
-0.7069 18.7175 5.7277 -1.5771 -0.7882 1.3614 0.0000 0.0000 0.0000 -12.0339 -4.0992 -3.4689 1.2188 7.0027 19.7234 1.2378 2.7171 -22.1542 8.5274 -16.4938 -54.4408 0.0000 0.0000 0.0000 0.0000 0.0000 0.0000 0.0000 0.0000 0.0000 -0.0000 -0.0000 0.0000 -0.0000 -0.0000 0.0000 8.6181 1.3498 8.9433 1.8345 2.9930 -2.9602 -3.3449 1.0800 -7.8657 -6.9476 -10.0669 -8.7350 4.6400 -12.9580 3.8555 1.9098 -6.3690 3.6608 0.0000 0.0000 0.0000 7.2637 27.3967 -43.737 60.5484 -56.4543 34.7978 7.4781 -1.8909 22.3019 0.0 0.0 0.0 -7.1250 0.0 0.0 -13.4092 7.9972 -11.7483 0.0000 0.0000 0.0000 -67.3642 -30.9363 -8.5989 -106.1760 -58.9878 -73.9612 -40.0085 34.6138 30.0198 0.0 0.0 0.0 7.1250 0.0 -0.0 -12.5551 66.6077 6.5825
-0.7028 18.7183 5.7322 -1.6338 -0.8563 1.3694 0.0000 0.0000 0.0000 -12.0114 -4.2120 -3.3756 1.2153 6.9930 19.6946 1.2494 2.8402 -22.3101 8.5259 -16.4928 -54.4356 0.0000 0.0000 0.0000 0.0000 0.0000 0.0000 0.0000 0.0000 0.0000 -0.0000 -0.0000 0.0000 -0.0000 -0.0000 0.0000 8.7373 1.3458 9.0034 1.8671 3.0162 -3.0253 -3.3831 1.0799 -7.9662 -6.9090 -10.0536 -8.5632 4.5959 -12.9523 3.8202 1.8987 -6.3700 3.6079 0.0000 0.0000 0.0000 7.3282 27.5493 -43.7556 60.5776 -56.4619 34.8221 7.494 -1.8922 22.4048 0.0 0.0 0.0 -7.1250 0.0 0.0 -13.3994 7.8952 -11.7668 0.0000 0.0000 0.0000 -68.5617 -31.1215 -9.4541 -104.5041 -59.19 -72.5267 -40.5257 36.8045 30.0884 0.0 0.0 0.0 7.1250 0.0 -0.0 -13.3591 66.8439 7.0823
-0.6991 18.7187 5.7376 -1.6862 -0.9933 1.4024 0.0000 0.0000 0.0000 -11.9833 -4.2099 -3.3310 1.2116 6.9826 19.6638 1.2567 2.9615 -22.4297 8.5480 -16.5079 -54.5133 0.0000 0.0000 0.0000 0.0000 0.0000 0.0000 0.0000 0.0000 0.0000 -0.0000 -0.0000 0.0000 -0.0000 -0.0000 0.0000 8.8549 1.3681 8.9942 1.9086 3.0650 -3.0604 -3.4113 1.0967 -7.9913 -6.7972 -10.0767 -8.6189 4.3511 -12.9798 3.9897 1.7907 -6.3902 3.6485 -0.0000 -0.0000 0.0000 7.237 27.5219 -43.6705 60.3455 -56.4013 34.6287 7.4059 -1.7638 22.4046 0.0 0.0 0.0 -7.1250 0.0 0.0 -13.4539 7.9033 -11.8154 -0.0000 -0.0000 0.0000 -69.9047 -31.1221 -9.7941 -102.8694 -59.3648 -71.1215 -40.7938 38.0666 29.952 0.0 0.0 0.0 7.1250 0.0 -0.0 -13.7908 66.7724 7.2923
-0.6969 18.7184 5.7418 -1.7138 -1.1525 1.4306 0.0000 0.0000 0.0000 -11.9736 -4.1910 -3.2821 1.2075 6.9712 19.6300 1.2685 3.0370 -22.5640 8.5222 -16.4902 -54.4224 0.0000 0.0000 0.0000 0.0000 0.0000 0.0000 0.0000 0.0000 0.0000 -0.0000 -0.0000 0.0000 -0.0000 -0.0000 0.0000 8.9489 1.4160 8.9606 1.9418 3.1383 -3.0532 -3.4372 1.1304 -7.9529 -6.7054 -10.0890 -8.6620 4.1749 -12.9939 4.0853 1.7121 -6.4017 3.6678 0.0000 -0.0000 0.0000 7.1524 27.3863 -43.6059 60.0597 -56.3258 34.3908 7.3393 -1.6398 22.2504 0.0 0.0 0.0 -7.1250 0.0 0.0 -13.4952 8.0596 -11.8111 0.0000 -0.0000 0.0000 -71.3077 -30.8638 -9.7284 -101.5392 -59.4908 -69.9761 -41.2248 39.1232 29.8592 0.0 0.0 0.0 7.1250 0.0 -0.0 -14.4789 66.8002 7.6716
